<svg height="512" viewBox="0 0 64 64" width="512" xmlns="http://www.w3.org/2000/svg"><g id="Layer_49"><g><path d="m55.856 57.364c.828 0 1.5-.672 1.5-1.5v-47.715c0-.828-.672-1.5-1.5-1.5h-36.141l3.063-3.063c.586-.586.586-1.535 0-2.121s-1.535-.586-2.121 0l-5.622 5.623c-.293.293-.439.677-.439 1.061s.146.768.439 1.061l5.622 5.625c.293.293.677.439 1.061.439s.768-.146 1.061-.439c.586-.585.586-1.535 0-2.121l-3.062-3.063h34.641v46.215c-.002.826.67 1.498 1.498 1.498z"/><path d="m41.221 62.549c.293.293.677.439 1.061.439s.768-.146 1.061-.439l5.623-5.623c.586-.586.586-1.535 0-2.121l-5.623-5.624c-.586-.586-1.535-.586-2.121 0s-.586 1.535 0 2.121l3.062 3.063h-35.692v-46.216c0-.828-.672-1.5-1.5-1.5s-1.5.672-1.5 1.5v47.715c0 .828.672 1.5 1.5 1.5h37.192l-3.063 3.063c-.586.587-.586 1.536 0 2.122z"/></g></g></svg>