<svg id="Line" height="512" viewBox="0 0 64 64" width="512" xmlns="http://www.w3.org/2000/svg"><path d="m54.42188 11.51172a3.901 3.901 0 0 0 -2.42481-1.79736l-22.37793-5.59229a3.95411 3.95411 0 0 0 -4.78806 2.86625l-2.22476 8.916h-9.58777a4.00427 4.00427 0 0 0 -4 4v36.09568a4.00427 4.00427 0 0 0 4 4h22.95606a4.00427 4.00427 0 0 0 4-4v-3.83746l1.32324.32965a3.95521 3.95521 0 0 0 4.77341-2.86626l8.793-35.12886a3.93558 3.93558 0 0 0 -.44238-2.98535zm-16.44727 44.48828a2.00229 2.00229 0 0 1 -2 2h-22.95606a2.0023 2.0023 0 0 1 -2-2v-36.0957a2.0023 2.0023 0 0 1 2-2h22.95606a2.00229 2.00229 0 0 1 2 2zm14.94922-41.98682-8.793 35.12891a1.94339 1.94339 0 0 1 -2.34962 1.40965l-1.80663-.44993v-30.19751a4.00427 4.00427 0 0 0 -4-4h-11.306l2.10388-8.43262a1.94223 1.94223 0 0 1 2.35841-1.41014l22.3828 5.59373a1.951 1.951 0 0 1 1.41016 2.35791z" fill="rgb(0,0,0)"/></svg>