<svg id="Capa_1" enable-background="new 0 0 512 512" height="512" viewBox="0 0 512 512" width="512" xmlns="http://www.w3.org/2000/svg"><g><path d="m502 261.067h-20.122v-70.328c0-22.123-17.999-40.122-40.123-40.122h-20.563c-.82-2.082-13.134-31.736-27.149-65.59-8.467-20.439-31.984-30.181-52.424-21.712l-8.512 3.526-18.097-28.254c-11.946-18.672-36.745-24.131-55.422-12.162-199.426 127.768-189.071 120.508-193.344 124.192h-26.122c-22.123 0-40.122 17.999-40.122 40.122v261.062c0 22.123 17.999 40.122 40.122 40.122h401.633c22.124 0 40.123-17.999 40.123-40.122v-70.326h20.122c5.522 0 10-4.478 10-10v-100.408c0-5.522-4.478-10-10-10zm-152.727-179.275c10.249-4.247 22.045.639 26.293 10.89l24 57.936h-216.429c7.074-2.932 159.259-65.977 166.136-68.826zm-78.901-38.525c9.36-5.996 21.793-3.277 27.793 6.102l16.171 25.248-183.456 76h-28.306zm191.506 408.534c0 11.096-9.027 20.122-20.123 20.122h-401.633c-11.096 0-20.122-9.026-20.122-20.122v-261.062c0-11.096 9.026-20.122 20.122-20.122h401.633c11.096 0 20.123 9.026 20.123 20.122v70.328h-70.531c-33.084 0-60 26.915-60 59.999v.408c0 33.084 26.916 60 60 60h70.531zm30.122-90.327c-12.375 0-87.837 0-100.653 0-22.056 0-40-17.944-40-40v-.408c0-22.056 17.944-39.999 40-39.999h100.653z"/><path d="m381.551 321.271c0 5.522 4.477 10 10 10h10.041c5.522 0 10-4.478 10-10s-4.478-10-10-10h-10.041c-5.523 0-10 4.478-10 10z"/></g></svg>